<?xml version="1.0" standalone="no"?><!DOCTYPE svg PUBLIC "-//W3C//DTD SVG 1.1//EN" "http://www.w3.org/Graphics/SVG/1.1/DTD/svg11.dtd"><svg t="1650862085633" class="icon" viewBox="0 0 1104 1024" version="1.1" xmlns="http://www.w3.org/2000/svg" p-id="2113" xmlns:xlink="http://www.w3.org/1999/xlink" width="215.625" height="200"><defs><style type="text/css"></style></defs><path d="M795.708235 722.823529a20.078431 20.078431 0 0 1 0 40.156863H60.235294a60.235294 60.235294 0 0 1-60.235294-60.235294V60.235294a60.235294 60.235294 0 0 1 60.235294-60.235294h863.372549a60.235294 60.235294 0 0 1 60.235294 60.235294v124.486275a20.078431 20.078431 0 0 1-40.156862 0V60.235294a20.078431 20.078431 0 0 0-20.078432-20.078431H60.235294a20.078431 20.078431 0 0 0-20.078431 20.078431v642.509804a20.078431 20.078431 0 0 0 20.078431 20.078431h735.472941z" fill="#13227a" p-id="2114"></path><path d="M230.901961 752.941176a20.078431 20.078431 0 0 1 40.156863 0v240.941177a20.078431 20.078431 0 0 1-40.156863 0v-240.941177zM712.784314 752.941176a20.078431 20.078431 0 0 1 40.156862 0v240.941177a20.078431 20.078431 0 0 1-40.156862 0v-240.941177zM130.509804 652.54902a20.078431 20.078431 0 0 1 0-40.156863h20.078431a20.078431 20.078431 0 0 1 0 40.156863h-20.078431z m100.392157 0a20.078431 20.078431 0 0 1 0-40.156863h20.078431a20.078431 20.078431 0 0 1 0 40.156863h-20.078431z m100.392157 0a20.078431 20.078431 0 0 1 0-40.156863h20.078431a20.078431 20.078431 0 0 1 0 40.156863h-20.078431z m100.392157 0a20.078431 20.078431 0 0 1 0-40.156863h20.078431a20.078431 20.078431 0 0 1 0 40.156863h-20.078431z m100.392156 0a20.078431 20.078431 0 0 1 0-40.156863h20.078432a20.078431 20.078431 0 0 1 0 40.156863h-20.078432z m100.392157 0a20.078431 20.078431 0 0 1 0-40.156863h20.078432a20.078431 20.078431 0 0 1 0 40.156863h-20.078432z m100.392157 0a20.078431 20.078431 0 1 1 0-40.156863 20.078431 20.078431 0 0 1 0 40.156863z" fill="#13227a" p-id="2115"></path><path d="M983.843137 963.764706a20.078431 20.078431 0 0 0 40.156863 0v-184.119216A60.255373 60.255373 0 0 1 983.843137 722.823529v-160.627451a20.078431 20.078431 0 0 1 40.156863 0v160.627451a20.078431 20.078431 0 0 0 40.156863 0v-160.627451a80.313725 80.313725 0 0 0-80.313726-80.313725H722.823529a20.078431 20.078431 0 0 0 0 40.156863h180.705883v441.72549a20.078431 20.078431 0 0 0 40.156863 0v-170.666667a20.078431 20.078431 0 0 1 40.156862 0V963.764706z m80.313726-184.119216V963.764706a60.235294 60.235294 0 0 1-100.392157 44.895372A60.235294 60.235294 0 0 1 863.372549 963.764706V562.196078h-140.54902a60.235294 60.235294 0 0 1 0-120.470588h167.393883a110.431373 110.431373 0 1 1 121.97647 3.353098A120.510745 120.510745 0 0 1 1104.313725 562.196078v160.627451a60.255373 60.255373 0 0 1-40.156862 56.821961M953.72549 421.647059a70.27451 70.27451 0 1 0 0-140.54902 70.27451 70.27451 0 0 0 0 140.54902zM120.992627 474.854902c6.324706-80.594824 76.217725-142.998588 160.245961-142.998588 84.028235 0 153.921255 62.403765 160.225883 142.97851l0.240941 2.81098-0.562196 2.750745a40.156863 40.156863 0 0 1-39.353726 32.165647H160.687686a40.156863 40.156863 0 0 1-39.353725-32.165647l-0.562196-2.750745 0.220862-2.81098z m279.893334-2.449569c-7.388863-56.681412-58.287686-100.392157-119.647373-100.392157-61.359686 0-112.25851 43.710745-119.627294 100.392157h239.254588zM281.098039 321.254902a80.313725 80.313725 0 1 1 0-160.627451 80.313725 80.313725 0 0 1 0 160.627451z m0-40.156863a40.156863 40.156863 0 1 0 0-80.313725 40.156863 40.156863 0 0 0 0 80.313725z m240.941177 40.156863a20.078431 20.078431 0 0 1 0-40.156863h261.019608a20.078431 20.078431 0 0 1 0 40.156863H522.039216z m0-100.392157a20.078431 20.078431 0 0 1 0-40.156863h261.019608a20.078431 20.078431 0 0 1 0 40.156863H522.039216z" fill="#13227a" p-id="2116"></path></svg>